<?xml version="1.0" standalone="no"?>
<svg xmlns:xlink="http://www.w3.org/1999/xlink" id="wave" style="transform:rotate(180deg); transition: 0.3s" viewBox="0 0 1440 120" version="1.1" xmlns="http://www.w3.org/2000/svg"><defs><linearGradient id="sw-gradient-0" x1="0" x2="0" y1="1" y2="0"><stop stop-color="rgba(255, 255, 255, 1)" offset="0%"/><stop stop-color="rgba(69, 131, 170, 1)" offset="100%"/></linearGradient></defs><path style="transform:translate(0, 0px); opacity:1" fill="url(#sw-gradient-0)" d="M0,96L10,94C20,92,40,88,60,76C80,64,100,44,120,34C140,24,160,24,180,30C200,36,220,48,240,56C260,64,280,68,300,58C320,48,340,24,360,22C380,20,400,40,420,54C440,68,460,76,480,70C500,64,520,44,540,34C560,24,580,24,600,36C620,48,640,72,660,78C680,84,700,72,720,64C740,56,760,52,780,44C800,36,820,24,840,34C860,44,880,76,900,80C920,84,940,60,960,42C980,24,1000,12,1020,14C1040,16,1060,32,1080,48C1100,64,1120,80,1140,80C1160,80,1180,64,1200,54C1220,44,1240,40,1260,38C1280,36,1300,36,1320,40C1340,44,1360,52,1380,54C1400,56,1420,52,1430,50L1440,48L1440,120L1430,120C1420,120,1400,120,1380,120C1360,120,1340,120,1320,120C1300,120,1280,120,1260,120C1240,120,1220,120,1200,120C1180,120,1160,120,1140,120C1120,120,1100,120,1080,120C1060,120,1040,120,1020,120C1000,120,980,120,960,120C940,120,920,120,900,120C880,120,860,120,840,120C820,120,800,120,780,120C760,120,740,120,720,120C700,120,680,120,660,120C640,120,620,120,600,120C580,120,560,120,540,120C520,120,500,120,480,120C460,120,440,120,420,120C400,120,380,120,360,120C340,120,320,120,300,120C280,120,260,120,240,120C220,120,200,120,180,120C160,120,140,120,120,120C100,120,80,120,60,120C40,120,20,120,10,120L0,120Z"/></svg>