<?xml version="1.0" standalone="no"?>
<svg xmlns:xlink="http://www.w3.org/1999/xlink" id="wave" style="transform:rotate(180deg); transition: 0.3s" viewBox="0 0 1440 120" version="1.1" xmlns="http://www.w3.org/2000/svg"><defs><linearGradient id="sw-gradient-0" x1="0" x2="0" y1="1" y2="0"><stop stop-color="rgba(96, 180, 233, 1)" offset="0%"/><stop stop-color="rgba(52, 94, 121, 1)" offset="100%"/></linearGradient></defs><path style="transform:translate(0, 0px); opacity:1" fill="url(#sw-gradient-0)" d="M0,60L10,68C20,76,40,92,60,90C80,88,100,68,120,66C140,64,160,80,180,74C200,68,220,40,240,42C260,44,280,76,300,86C320,96,340,84,360,66C380,48,400,24,420,16C440,8,460,16,480,20C500,24,520,24,540,20C560,16,580,8,600,12C620,16,640,32,660,46C680,60,700,72,720,76C740,80,760,76,780,74C800,72,820,72,840,60C860,48,880,24,900,26C920,28,940,56,960,58C980,60,1000,36,1020,24C1040,12,1060,12,1080,14C1100,16,1120,20,1140,24C1160,28,1180,32,1200,30C1220,28,1240,20,1260,14C1280,8,1300,4,1320,12C1340,20,1360,40,1380,58C1400,76,1420,92,1430,100L1440,108L1440,120L1430,120C1420,120,1400,120,1380,120C1360,120,1340,120,1320,120C1300,120,1280,120,1260,120C1240,120,1220,120,1200,120C1180,120,1160,120,1140,120C1120,120,1100,120,1080,120C1060,120,1040,120,1020,120C1000,120,980,120,960,120C940,120,920,120,900,120C880,120,860,120,840,120C820,120,800,120,780,120C760,120,740,120,720,120C700,120,680,120,660,120C640,120,620,120,600,120C580,120,560,120,540,120C520,120,500,120,480,120C460,120,440,120,420,120C400,120,380,120,360,120C340,120,320,120,300,120C280,120,260,120,240,120C220,120,200,120,180,120C160,120,140,120,120,120C100,120,80,120,60,120C40,120,20,120,10,120L0,120Z"/></svg>