<?xml version="1.0" standalone="no"?>
<svg xmlns:xlink="http://www.w3.org/1999/xlink" id="wave" style="transform:rotate(0deg); transition: 0.3s" viewBox="0 0 1440 120" version="1.1" xmlns="http://www.w3.org/2000/svg"><defs><linearGradient id="sw-gradient-0" x1="0" x2="0" y1="1" y2="0"><stop stop-color="rgba(96, 180, 233, 1)" offset="0%"/><stop stop-color="rgba(52, 94, 121, 1)" offset="100%"/></linearGradient></defs><path style="transform:translate(0, 0px); opacity:1" fill="url(#sw-gradient-0)" d="M0,96L10,98C20,100,40,104,60,88C80,72,100,36,120,34C140,32,160,64,180,70C200,76,220,56,240,46C260,36,280,36,300,30C320,24,340,12,360,22C380,32,400,64,420,80C440,96,460,96,480,82C500,68,520,40,540,36C560,32,580,52,600,68C620,84,640,96,660,100C680,104,700,100,720,100C740,100,760,104,780,92C800,80,820,52,840,52C860,52,880,80,900,92C920,104,940,100,960,94C980,88,1000,80,1020,82C1040,84,1060,96,1080,98C1100,100,1120,92,1140,86C1160,80,1180,76,1200,62C1220,48,1240,24,1260,24C1280,24,1300,48,1320,48C1340,48,1360,24,1380,14C1400,4,1420,8,1430,10L1440,12L1440,120L1430,120C1420,120,1400,120,1380,120C1360,120,1340,120,1320,120C1300,120,1280,120,1260,120C1240,120,1220,120,1200,120C1180,120,1160,120,1140,120C1120,120,1100,120,1080,120C1060,120,1040,120,1020,120C1000,120,980,120,960,120C940,120,920,120,900,120C880,120,860,120,840,120C820,120,800,120,780,120C760,120,740,120,720,120C700,120,680,120,660,120C640,120,620,120,600,120C580,120,560,120,540,120C520,120,500,120,480,120C460,120,440,120,420,120C400,120,380,120,360,120C340,120,320,120,300,120C280,120,260,120,240,120C220,120,200,120,180,120C160,120,140,120,120,120C100,120,80,120,60,120C40,120,20,120,10,120L0,120Z"/></svg>