<?xml version="1.0" standalone="no"?>
<svg xmlns:xlink="http://www.w3.org/1999/xlink" id="wave" style="transform:rotate(180deg); transition: 0.3s" viewBox="0 0 1440 490" version="1.1" xmlns="http://www.w3.org/2000/svg"><defs><linearGradient id="sw-gradient-0" x1="0" x2="0" y1="1" y2="0"><stop stop-color="rgba(96, 180, 233, 1)" offset="0%"/><stop stop-color="rgba(52, 94, 121, 1)" offset="100%"/></linearGradient></defs><path style="transform:translate(0, 0px); opacity:1" fill="url(#sw-gradient-0)" d="M0,343L10,285.8C20,229,40,114,60,106.2C80,98,100,196,120,204.2C140,212,160,131,180,147C200,163,220,278,240,277.7C260,278,280,163,300,122.5C320,82,340,114,360,155.2C380,196,400,245,420,228.7C440,212,460,131,480,122.5C500,114,520,180,540,220.5C560,261,580,278,600,294C620,310,640,327,660,318.5C680,310,700,278,720,261.3C740,245,760,245,780,253.2C800,261,820,278,840,245C860,212,880,131,900,98C920,65,940,82,960,138.8C980,196,1000,294,1020,302.2C1040,310,1060,229,1080,212.3C1100,196,1120,245,1140,285.8C1160,327,1180,359,1200,326.7C1220,294,1240,196,1260,138.8C1280,82,1300,65,1320,73.5C1340,82,1360,114,1380,171.5C1400,229,1420,310,1430,351.2L1440,392L1440,490L1430,490C1420,490,1400,490,1380,490C1360,490,1340,490,1320,490C1300,490,1280,490,1260,490C1240,490,1220,490,1200,490C1180,490,1160,490,1140,490C1120,490,1100,490,1080,490C1060,490,1040,490,1020,490C1000,490,980,490,960,490C940,490,920,490,900,490C880,490,860,490,840,490C820,490,800,490,780,490C760,490,740,490,720,490C700,490,680,490,660,490C640,490,620,490,600,490C580,490,560,490,540,490C520,490,500,490,480,490C460,490,440,490,420,490C400,490,380,490,360,490C340,490,320,490,300,490C280,490,260,490,240,490C220,490,200,490,180,490C160,490,140,490,120,490C100,490,80,490,60,490C40,490,20,490,10,490L0,490Z"/></svg>