<?xml version="1.0" standalone="no"?>
<svg xmlns:xlink="http://www.w3.org/1999/xlink" id="wave" style="transform:rotate(0deg); transition: 0.3s" viewBox="0 0 1440 290" version="1.1" xmlns="http://www.w3.org/2000/svg"><defs><linearGradient id="sw-gradient-0" x1="0" x2="0" y1="1" y2="0"><stop stop-color="rgba(96, 180, 233, 1)" offset="0%"/><stop stop-color="rgba(52, 94, 121, 1)" offset="100%"/></linearGradient></defs><path style="transform:translate(0, 0px); opacity:1" fill="url(#sw-gradient-0)" d="M0,203L10,169.2C20,135,40,68,60,62.8C80,58,100,116,120,120.8C140,126,160,77,180,87C200,97,220,164,240,164.3C260,164,280,97,300,72.5C320,48,340,68,360,91.8C380,116,400,145,420,135.3C440,126,460,77,480,72.5C500,68,520,106,540,130.5C560,155,580,164,600,174C620,184,640,193,660,188.5C680,184,700,164,720,154.7C740,145,760,145,780,149.8C800,155,820,164,840,145C860,126,880,77,900,58C920,39,940,48,960,82.2C980,116,1000,174,1020,178.8C1040,184,1060,135,1080,125.7C1100,116,1120,145,1140,169.2C1160,193,1180,213,1200,193.3C1220,174,1240,116,1260,82.2C1280,48,1300,39,1320,43.5C1340,48,1360,68,1380,101.5C1400,135,1420,184,1430,207.8L1440,232L1440,290L1430,290C1420,290,1400,290,1380,290C1360,290,1340,290,1320,290C1300,290,1280,290,1260,290C1240,290,1220,290,1200,290C1180,290,1160,290,1140,290C1120,290,1100,290,1080,290C1060,290,1040,290,1020,290C1000,290,980,290,960,290C940,290,920,290,900,290C880,290,860,290,840,290C820,290,800,290,780,290C760,290,740,290,720,290C700,290,680,290,660,290C640,290,620,290,600,290C580,290,560,290,540,290C520,290,500,290,480,290C460,290,440,290,420,290C400,290,380,290,360,290C340,290,320,290,300,290C280,290,260,290,240,290C220,290,200,290,180,290C160,290,140,290,120,290C100,290,80,290,60,290C40,290,20,290,10,290L0,290Z"/></svg>