<?xml version="1.0" standalone="no"?>
<svg xmlns:xlink="http://www.w3.org/1999/xlink" id="wave" style="transform:rotate(0deg); transition: 0.3s" viewBox="0 0 1440 130" version="1.1" xmlns="http://www.w3.org/2000/svg"><defs><linearGradient id="sw-gradient-0" x1="0" x2="0" y1="1" y2="0"><stop stop-color="rgba(188, 56, 46, 1)" offset="0%"/><stop stop-color="rgba(188, 56, 46, 1)" offset="100%"/></linearGradient></defs><path style="transform:translate(0, 0px); opacity:1" fill="url(#sw-gradient-0)" d="M0,65L10.4,54.2C20.9,43,42,22,63,30.3C83.5,39,104,78,125,84.5C146.1,91,167,65,188,65C208.7,65,230,91,250,86.7C271.3,82,292,48,313,36.8C333.9,26,355,39,376,49.8C396.5,61,417,69,438,67.2C459.1,65,480,52,501,41.2C521.7,30,543,22,563,32.5C584.3,43,605,74,626,82.3C647,91,668,78,689,80.2C709.6,82,730,100,751,88.8C772.2,78,793,39,814,32.5C834.8,26,856,52,877,52C897.4,52,918,26,939,15.2C960,4,981,9,1002,26C1022.6,43,1043,74,1064,82.3C1085.2,91,1106,78,1127,71.5C1147.8,65,1169,65,1190,54.2C1210.4,43,1231,22,1252,28.2C1273,35,1294,69,1315,73.7C1335.7,78,1357,52,1377,47.7C1398.3,43,1419,61,1440,65C1460.9,69,1482,61,1492,56.3L1502.6,52L1502.6,130L1492.2,130C1481.7,130,1461,130,1440,130C1419.1,130,1398,130,1377,130C1356.5,130,1336,130,1315,130C1293.9,130,1273,130,1252,130C1231.3,130,1210,130,1190,130C1168.7,130,1148,130,1127,130C1106.1,130,1085,130,1064,130C1043.5,130,1023,130,1002,130C980.9,130,960,130,939,130C918.3,130,897,130,877,130C855.7,130,835,130,814,130C793,130,772,130,751,130C730.4,130,710,130,689,130C667.8,130,647,130,626,130C605.2,130,584,130,563,130C542.6,130,522,130,501,130C480,130,459,130,438,130C417.4,130,397,130,376,130C354.8,130,334,130,313,130C292.2,130,271,130,250,130C229.6,130,209,130,188,130C167,130,146,130,125,130C104.3,130,83,130,63,130C41.7,130,21,130,10,130L0,130Z"/></svg>