<?xml version="1.0" standalone="no"?>
<svg xmlns:xlink="http://www.w3.org/1999/xlink" id="wave" style="transform:rotate(0deg); transition: 0.3s" viewBox="0 0 1440 100" version="1.1" xmlns="http://www.w3.org/2000/svg"><defs><linearGradient id="sw-gradient-0" x1="0" x2="0" y1="1" y2="0"><stop stop-color="rgba(188, 56, 46, 1)" offset="0%"/><stop stop-color="rgba(255, 175.574, 0, 1)" offset="100%"/></linearGradient></defs><path style="transform:translate(0, 0px); opacity:1" fill="url(#sw-gradient-0)" d="M0,50L10.4,41.7C20.9,33,42,17,63,23.3C83.5,30,104,60,125,65C146.1,70,167,50,188,50C208.7,50,230,70,250,66.7C271.3,63,292,37,313,28.3C333.9,20,355,30,376,38.3C396.5,47,417,53,438,51.7C459.1,50,480,40,501,31.7C521.7,23,543,17,563,25C584.3,33,605,57,626,63.3C647,70,668,60,689,61.7C709.6,63,730,77,751,68.3C772.2,60,793,30,814,25C834.8,20,856,40,877,40C897.4,40,918,20,939,11.7C960,3,981,7,1002,20C1022.6,33,1043,57,1064,63.3C1085.2,70,1106,60,1127,55C1147.8,50,1169,50,1190,41.7C1210.4,33,1231,17,1252,21.7C1273,27,1294,53,1315,56.7C1335.7,60,1357,40,1377,36.7C1398.3,33,1419,47,1440,50C1460.9,53,1482,47,1492,43.3L1502.6,40L1502.6,100L1492.2,100C1481.7,100,1461,100,1440,100C1419.1,100,1398,100,1377,100C1356.5,100,1336,100,1315,100C1293.9,100,1273,100,1252,100C1231.3,100,1210,100,1190,100C1168.7,100,1148,100,1127,100C1106.1,100,1085,100,1064,100C1043.5,100,1023,100,1002,100C980.9,100,960,100,939,100C918.3,100,897,100,877,100C855.7,100,835,100,814,100C793,100,772,100,751,100C730.4,100,710,100,689,100C667.8,100,647,100,626,100C605.2,100,584,100,563,100C542.6,100,522,100,501,100C480,100,459,100,438,100C417.4,100,397,100,376,100C354.8,100,334,100,313,100C292.2,100,271,100,250,100C229.6,100,209,100,188,100C167,100,146,100,125,100C104.3,100,83,100,63,100C41.7,100,21,100,10,100L0,100Z"/></svg>