<?xml version="1.0" standalone="no"?>
<svg xmlns:xlink="http://www.w3.org/1999/xlink" id="wave" style="transform:rotate(0deg); transition: 0.3s" viewBox="0 0 1440 240" version="1.1" xmlns="http://www.w3.org/2000/svg"><defs><linearGradient id="sw-gradient-0" x1="0" x2="0" y1="1" y2="0"><stop stop-color="rgba(188, 56, 46, 1)" offset="0%"/><stop stop-color="rgba(188, 56, 46, 1)" offset="100%"/></linearGradient></defs><path style="transform:translate(0, 0px); opacity:1" fill="url(#sw-gradient-0)" d="M0,120L16,100C32,80,64,40,96,56C128,72,160,144,192,156C224,168,256,120,288,120C320,120,352,168,384,160C416,152,448,88,480,68C512,48,544,72,576,92C608,112,640,128,672,124C704,120,736,96,768,76C800,56,832,40,864,60C896,80,928,136,960,152C992,168,1024,144,1056,148C1088,152,1120,184,1152,164C1184,144,1216,72,1248,60C1280,48,1312,96,1344,96C1376,96,1408,48,1440,28C1472,8,1504,16,1536,48C1568,80,1600,136,1632,152C1664,168,1696,144,1728,132C1760,120,1792,120,1824,100C1856,80,1888,40,1920,52C1952,64,1984,128,2016,136C2048,144,2080,96,2112,88C2144,80,2176,112,2208,120C2240,128,2272,112,2288,104L2304,96L2304,240L2288,240C2272,240,2240,240,2208,240C2176,240,2144,240,2112,240C2080,240,2048,240,2016,240C1984,240,1952,240,1920,240C1888,240,1856,240,1824,240C1792,240,1760,240,1728,240C1696,240,1664,240,1632,240C1600,240,1568,240,1536,240C1504,240,1472,240,1440,240C1408,240,1376,240,1344,240C1312,240,1280,240,1248,240C1216,240,1184,240,1152,240C1120,240,1088,240,1056,240C1024,240,992,240,960,240C928,240,896,240,864,240C832,240,800,240,768,240C736,240,704,240,672,240C640,240,608,240,576,240C544,240,512,240,480,240C448,240,416,240,384,240C352,240,320,240,288,240C256,240,224,240,192,240C160,240,128,240,96,240C64,240,32,240,16,240L0,240Z"/></svg>