<?xml version="1.0" standalone="no"?>
<svg xmlns:xlink="http://www.w3.org/1999/xlink" id="wave" style="transform:rotate(0deg); transition: 0.3s" viewBox="0 0 1440 240" version="1.1" xmlns="http://www.w3.org/2000/svg"><defs><linearGradient id="sw-gradient-0" x1="0" x2="0" y1="1" y2="0"><stop stop-color="rgba(188, 56, 46, 1)" offset="0%"/><stop stop-color="rgba(188, 56, 46, 1)" offset="100%"/></linearGradient></defs><path style="transform:translate(0, 0px); opacity:1" fill="url(#sw-gradient-0)" d="M0,120L24,100C48,80,96,40,144,56C192,72,240,144,288,156C336,168,384,120,432,120C480,120,528,168,576,160C624,152,672,88,720,68C768,48,816,72,864,92C912,112,960,128,1008,124C1056,120,1104,96,1152,76C1200,56,1248,40,1296,60C1344,80,1392,136,1440,152C1488,168,1536,144,1584,148C1632,152,1680,184,1728,164C1776,144,1824,72,1872,60C1920,48,1968,96,2016,96C2064,96,2112,48,2160,28C2208,8,2256,16,2304,48C2352,80,2400,136,2448,152C2496,168,2544,144,2592,132C2640,120,2688,120,2736,100C2784,80,2832,40,2880,52C2928,64,2976,128,3024,136C3072,144,3120,96,3168,88C3216,80,3264,112,3312,120C3360,128,3408,112,3432,104L3456,96L3456,240L3432,240C3408,240,3360,240,3312,240C3264,240,3216,240,3168,240C3120,240,3072,240,3024,240C2976,240,2928,240,2880,240C2832,240,2784,240,2736,240C2688,240,2640,240,2592,240C2544,240,2496,240,2448,240C2400,240,2352,240,2304,240C2256,240,2208,240,2160,240C2112,240,2064,240,2016,240C1968,240,1920,240,1872,240C1824,240,1776,240,1728,240C1680,240,1632,240,1584,240C1536,240,1488,240,1440,240C1392,240,1344,240,1296,240C1248,240,1200,240,1152,240C1104,240,1056,240,1008,240C960,240,912,240,864,240C816,240,768,240,720,240C672,240,624,240,576,240C528,240,480,240,432,240C384,240,336,240,288,240C240,240,192,240,144,240C96,240,48,240,24,240L0,240Z"/></svg>